<svg class="main-svg" xmlns="http://www.w3.org/2000/svg" xmlns:xlink="http://www.w3.org/1999/xlink" width="1200" height="800" style="" viewBox="0 0 1200 800"><rect x="0" y="0" width="1200" height="800" style="fill: rgb(255, 255, 255); fill-opacity: 1;"/><defs id="defs-9a48e2"><g class="clips"><clipPath id="clip9a48e2xyplot" class="plotclip"><rect width="1098" height="714"/></clipPath><clipPath class="axesclip" id="clip9a48e2x"><rect x="101" y="0" width="1098" height="800"/></clipPath><clipPath class="axesclip" id="clip9a48e2y"><rect x="0" y="13" width="1200" height="714"/></clipPath><clipPath class="axesclip" id="clip9a48e2xy"><rect x="101" y="13" width="1098" height="714"/></clipPath></g><g class="gradients"/><g class="patterns"/></defs><g class="bglayer"/><g class="layer-below"><g class="imagelayer"/><g class="shapelayer"/></g><g class="cartesianlayer"><g class="subplot xy"><g class="layer-subplot"><g class="shapelayer"/><g class="imagelayer"/></g><g class="minor-gridlayer"><g class="x"/><g class="y"/></g><g class="gridlayer"><g class="x"><path class="xgrid crisp" transform="translate(210.8,0)" d="M0,13v714" style="stroke: rgb(128, 128, 128); stroke-opacity: 0.1; stroke-width: 1px;"/><path class="xgrid crisp" transform="translate(430.4,0)" d="M0,13v714" style="stroke: rgb(128, 128, 128); stroke-opacity: 0.1; stroke-width: 1px;"/><path class="xgrid crisp" transform="translate(650,0)" d="M0,13v714" style="stroke: rgb(128, 128, 128); stroke-opacity: 0.1; stroke-width: 1px;"/><path class="xgrid crisp" transform="translate(869.6,0)" d="M0,13v714" style="stroke: rgb(128, 128, 128); stroke-opacity: 0.1; stroke-width: 1px;"/><path class="xgrid crisp" transform="translate(1089.2,0)" d="M0,13v714" style="stroke: rgb(128, 128, 128); stroke-opacity: 0.1; stroke-width: 1px;"/></g><g class="y"><path class="ygrid crisp" transform="translate(0,608)" d="M101,0h1098" style="stroke: rgb(128, 128, 128); stroke-opacity: 0.1; stroke-width: 1px;"/><path class="ygrid crisp" transform="translate(0,489)" d="M101,0h1098" style="stroke: rgb(128, 128, 128); stroke-opacity: 0.1; stroke-width: 1px;"/><path class="ygrid crisp" transform="translate(0,370)" d="M101,0h1098" style="stroke: rgb(128, 128, 128); stroke-opacity: 0.1; stroke-width: 1px;"/><path class="ygrid crisp" transform="translate(0,251)" d="M101,0h1098" style="stroke: rgb(128, 128, 128); stroke-opacity: 0.1; stroke-width: 1px;"/><path class="ygrid crisp" transform="translate(0,132)" d="M101,0h1098" style="stroke: rgb(128, 128, 128); stroke-opacity: 0.1; stroke-width: 1px;"/></g></g><g class="zerolinelayer"/><g class="layer-between"><g class="shapelayer"/><g class="imagelayer"/></g><path class="xlines-below"/><path class="ylines-below"/><g class="overlines-below"/><g class="xaxislayer-below"/><g class="yaxislayer-below"/><g class="overaxes-below"/><g class="overplot"><g class="xy" transform="translate(101,13)" clip-path="url(#clip9a48e2xyplot)"><g class="barlayer mlayer"><g class="trace bars" shape-rendering="crispEdges" style="opacity: 1;"><g class="points"><g class="point"><path d="M109.8,714V699.96H219.6V714Z" style="vector-effect: none; opacity: 1; stroke-width: 2px; fill: rgb(32, 178, 170); fill-opacity: 0.2; stroke: rgb(32, 178, 170); stroke-opacity: 1;"/></g><g class="point"><path d="M329.4,714V664.73H439.2V714Z" style="vector-effect: none; opacity: 1; stroke-width: 2px; fill: rgb(32, 178, 170); fill-opacity: 0.2; stroke: rgb(32, 178, 170); stroke-opacity: 1;"/></g><g class="point"><path d="M549,714V620.47H658.8V714Z" style="vector-effect: none; opacity: 1; stroke-width: 2px; fill: rgb(32, 178, 170); fill-opacity: 0.2; stroke: rgb(32, 178, 170); stroke-opacity: 1;"/></g><g class="point"><path d="M768.6,714V614.99H878.4V714Z" style="vector-effect: none; opacity: 1; stroke-width: 2px; fill: rgb(32, 178, 170); fill-opacity: 0.2; stroke: rgb(32, 178, 170); stroke-opacity: 1;"/></g><g class="point"><path d="M988.2,714V630.22H1098V714Z" style="vector-effect: none; opacity: 1; stroke-width: 2px; fill: rgb(32, 178, 170); fill-opacity: 0.2; stroke: rgb(32, 178, 170); stroke-opacity: 1;"/></g></g></g><g class="trace bars" shape-rendering="crispEdges" style="opacity: 1;"><g class="points"><g class="point"><path d="M109.8,699.96V699.96H219.6V699.96Z" style="vector-effect: none; opacity: 1; stroke-width: 2px; fill: rgb(153, 50, 204); fill-opacity: 0.2; stroke: rgb(153, 50, 204); stroke-opacity: 1;"/></g><g class="point"><path d="M329.4,664.73V664.73H439.2V664.73Z" style="vector-effect: none; opacity: 1; stroke-width: 2px; fill: rgb(153, 50, 204); fill-opacity: 0.2; stroke: rgb(153, 50, 204); stroke-opacity: 1;"/></g><g class="point"><path d="M549,620.47V609.85H658.8V620.47Z" style="vector-effect: none; opacity: 1; stroke-width: 2px; fill: rgb(153, 50, 204); fill-opacity: 0.2; stroke: rgb(153, 50, 204); stroke-opacity: 1;"/></g><g class="point"><path d="M768.6,614.99V597.86H878.4V614.99Z" style="vector-effect: none; opacity: 1; stroke-width: 2px; fill: rgb(153, 50, 204); fill-opacity: 0.2; stroke: rgb(153, 50, 204); stroke-opacity: 1;"/></g><g class="point"><path d="M988.2,630.22V621.18H1098V630.22Z" style="vector-effect: none; opacity: 1; stroke-width: 2px; fill: rgb(153, 50, 204); fill-opacity: 0.2; stroke: rgb(153, 50, 204); stroke-opacity: 1;"/></g></g></g><g class="trace bars" shape-rendering="crispEdges" style="opacity: 1;"><g class="points"><g class="point"><path d="M109.8,699.96V680.68H219.6V699.96Z" style="vector-effect: none; opacity: 1; stroke-width: 2px; fill: rgb(1, 100, 224); fill-opacity: 0.2; stroke: rgb(1, 100, 224); stroke-opacity: 1;"/></g><g class="point"><path d="M329.4,664.73V626.65H439.2V664.73Z" style="vector-effect: none; opacity: 1; stroke-width: 2px; fill: rgb(1, 100, 224); fill-opacity: 0.2; stroke: rgb(1, 100, 224); stroke-opacity: 1;"/></g><g class="point"><path d="M549,609.85V609.85H658.8V609.85Z" style="vector-effect: none; opacity: 1; stroke-width: 2px; fill: rgb(1, 100, 224); fill-opacity: 0.2; stroke: rgb(1, 100, 224); stroke-opacity: 1;"/></g><g class="point"><path d="M768.6,597.86V597.86H878.4V597.86Z" style="vector-effect: none; opacity: 1; stroke-width: 2px; fill: rgb(1, 100, 224); fill-opacity: 0.2; stroke: rgb(1, 100, 224); stroke-opacity: 1;"/></g><g class="point"><path d="M988.2,621.18V621.18H1098V621.18Z" style="vector-effect: none; opacity: 1; stroke-width: 2px; fill: rgb(1, 100, 224); fill-opacity: 0.2; stroke: rgb(1, 100, 224); stroke-opacity: 1;"/></g></g></g><g class="trace bars" shape-rendering="crispEdges" style="opacity: 1;"><g class="points"><g class="point"><path d="M109.8,680.68V660.21H219.6V680.68Z" style="vector-effect: none; opacity: 1; stroke-width: 2px; fill: rgb(118, 185, 0); fill-opacity: 0.2; stroke: rgb(118, 185, 0); stroke-opacity: 1;"/></g><g class="point"><path d="M329.4,626.65V583.81H439.2V626.65Z" style="vector-effect: none; opacity: 1; stroke-width: 2px; fill: rgb(118, 185, 0); fill-opacity: 0.2; stroke: rgb(118, 185, 0); stroke-opacity: 1;"/></g><g class="point"><path d="M549,609.85V547.73H658.8V609.85Z" style="vector-effect: none; opacity: 1; stroke-width: 2px; fill: rgb(118, 185, 0); fill-opacity: 0.2; stroke: rgb(118, 185, 0); stroke-opacity: 1;"/></g><g class="point"><path d="M768.6,597.86V524.31H878.4V597.86Z" style="vector-effect: none; opacity: 1; stroke-width: 2px; fill: rgb(118, 185, 0); fill-opacity: 0.2; stroke: rgb(118, 185, 0); stroke-opacity: 1;"/></g><g class="point"><path d="M988.2,621.18V518.36H1098V621.18Z" style="vector-effect: none; opacity: 1; stroke-width: 2px; fill: rgb(118, 185, 0); fill-opacity: 0.2; stroke: rgb(118, 185, 0); stroke-opacity: 1;"/></g></g></g><g class="trace bars" shape-rendering="crispEdges" style="opacity: 1;"><g class="points"><g class="point"><path d="M109.8,660.21V634.51H219.6V660.21Z" style="vector-effect: none; opacity: 1; stroke-width: 2px; fill: rgb(251, 82, 16); fill-opacity: 0.2; stroke: rgb(251, 82, 16); stroke-opacity: 1;"/></g><g class="point"><path d="M329.4,583.81V526.69H439.2V583.81Z" style="vector-effect: none; opacity: 1; stroke-width: 2px; fill: rgb(251, 82, 16); fill-opacity: 0.2; stroke: rgb(251, 82, 16); stroke-opacity: 1;"/></g><g class="point"><path d="M549,547.73V464.2H658.8V547.73Z" style="vector-effect: none; opacity: 1; stroke-width: 2px; fill: rgb(251, 82, 16); fill-opacity: 0.2; stroke: rgb(251, 82, 16); stroke-opacity: 1;"/></g><g class="point"><path d="M768.6,524.31V417.45H878.4V524.31Z" style="vector-effect: none; opacity: 1; stroke-width: 2px; fill: rgb(251, 82, 16); fill-opacity: 0.2; stroke: rgb(251, 82, 16); stroke-opacity: 1;"/></g><g class="point"><path d="M988.2,518.36V351.05H1098V518.36Z" style="vector-effect: none; opacity: 1; stroke-width: 2px; fill: rgb(251, 82, 16); fill-opacity: 0.2; stroke: rgb(251, 82, 16); stroke-opacity: 1;"/></g></g></g><g class="trace bars" shape-rendering="crispEdges" style="opacity: 1;"><g class="points"><g class="point"><path d="M109.8,634.51V551.45H219.6V634.51Z" style="vector-effect: none; opacity: 1; stroke-width: 2px; fill: rgb(77, 107, 254); fill-opacity: 0.2; stroke: rgb(77, 107, 254); stroke-opacity: 1;"/></g><g class="point"><path d="M329.4,526.69V424.35H439.2V526.69Z" style="vector-effect: none; opacity: 1; stroke-width: 2px; fill: rgb(77, 107, 254); fill-opacity: 0.2; stroke: rgb(77, 107, 254); stroke-opacity: 1;"/></g><g class="point"><path d="M549,464.2V387.56H658.8V464.2Z" style="vector-effect: none; opacity: 1; stroke-width: 2px; fill: rgb(77, 107, 254); fill-opacity: 0.2; stroke: rgb(77, 107, 254); stroke-opacity: 1;"/></g><g class="point"><path d="M768.6,417.45V289.17H878.4V417.45Z" style="vector-effect: none; opacity: 1; stroke-width: 2px; fill: rgb(77, 107, 254); fill-opacity: 0.2; stroke: rgb(77, 107, 254); stroke-opacity: 1;"/></g><g class="point"><path d="M988.2,351.05V170.65H1098V351.05Z" style="vector-effect: none; opacity: 1; stroke-width: 2px; fill: rgb(77, 107, 254); fill-opacity: 0.2; stroke: rgb(77, 107, 254); stroke-opacity: 1;"/></g></g></g><g class="trace bars" shape-rendering="crispEdges" style="opacity: 1;"><g class="points"><g class="point"><path d="M109.8,551.45V519.32H219.6V551.45Z" style="vector-effect: none; opacity: 1; stroke-width: 2px; fill: rgb(162, 170, 173); fill-opacity: 0.2; stroke: rgb(162, 170, 173); stroke-opacity: 1;"/></g><g class="point"><path d="M329.4,424.35V324.39H439.2V424.35Z" style="vector-effect: none; opacity: 1; stroke-width: 2px; fill: rgb(162, 170, 173); fill-opacity: 0.2; stroke: rgb(162, 170, 173); stroke-opacity: 1;"/></g><g class="point"><path d="M549,387.56V288.55H658.8V387.56Z" style="vector-effect: none; opacity: 1; stroke-width: 2px; fill: rgb(162, 170, 173); fill-opacity: 0.2; stroke: rgb(162, 170, 173); stroke-opacity: 1;"/></g><g class="point"><path d="M768.6,289.17V171.84H878.4V289.17Z" style="vector-effect: none; opacity: 1; stroke-width: 2px; fill: rgb(162, 170, 173); fill-opacity: 0.2; stroke: rgb(162, 170, 173); stroke-opacity: 1;"/></g><g class="point"><path d="M988.2,170.65V57.83H1098V170.65Z" style="vector-effect: none; opacity: 1; stroke-width: 2px; fill: rgb(162, 170, 173); fill-opacity: 0.2; stroke: rgb(162, 170, 173); stroke-opacity: 1;"/></g></g></g></g><g class="scatterlayer mlayer"><g class="trace scatter tracec7a2f1" style="stroke-miterlimit: 2;"><g class="fills"><g><path class="js-fill" d="M988.2,714L109.8,714L109.8,699.96Q256.33,677.95 329.4,664.73C402.73,651.46 475.44,628.74 549,620.47C621.84,612.28 695.44,613.37 768.6,614.99Q841.84,616.61 988.2,630.22" style="fill: rgb(32, 178, 170); fill-opacity: 0.2; stroke-width: 0;"/></g><g><path class="js-fill" d="M109.8,699.96Q256.52,679.65 329.4,664.73C402.92,649.67 475.27,620.97 549,609.85C621.68,598.89 695.48,595.99 768.6,597.86Q841.88,599.74 988.2,621.18L988.2,630.22Q841.84,616.61 768.6,614.99C695.44,613.37 621.84,612.28 549,620.47C475.44,628.74 402.73,651.46 329.4,664.73Q256.33,677.95 109.8,699.96Z" style="fill: rgb(153, 50, 204); fill-opacity: 0.2; stroke-width: 0;"/></g></g><g class="errorbars"/><g class="lines"><path class="js-line" d="M109.8,699.96Q256.33,677.95 329.4,664.73C402.73,651.46 475.44,628.74 549,620.47C621.84,612.28 695.44,613.37 768.6,614.99Q841.84,616.61 988.2,630.22" style="vector-effect: none; fill: none; stroke: rgb(32, 178, 170); stroke-opacity: 1; stroke-width: 1px; opacity: 1;"/></g><g class="points"/><g class="text"/></g><g class="trace scatter traceaa7ce2" style="stroke-miterlimit: 2;"><g class="fills"><g><path class="js-fill" d="M109.8,680.68Q255.71,638.45 329.4,626.65C402.12,615 475.77,614.65 549,609.85C622.17,605.05 695.48,595.99 768.6,597.86Q841.88,599.74 988.2,621.18L988.2,621.18Q841.88,599.74 768.6,597.86C695.48,595.99 621.68,598.89 549,609.85C475.27,620.97 402.92,649.67 329.4,664.73Q256.52,679.65 109.8,699.96Z" style="fill: rgb(1, 100, 224); fill-opacity: 0.2; stroke-width: 0;"/></g></g><g class="errorbars"/><g class="lines"><path class="js-line" d="M109.8,699.96Q256.52,679.65 329.4,664.73C402.92,649.67 475.27,620.97 549,609.85C621.68,598.89 695.48,595.99 768.6,597.86Q841.88,599.74 988.2,621.18" style="vector-effect: none; fill: none; stroke: rgb(153, 50, 204); stroke-opacity: 1; stroke-width: 1px; opacity: 1;"/></g><g class="points"/><g class="text"/></g><g class="trace scatter tracec06c48" style="stroke-miterlimit: 2;"><g class="fills"><g><path class="js-fill" d="M109.8,660.21Q255.38,602.62 329.4,583.81C401.82,565.41 475.66,557.66 549,547.73C622.06,537.84 695.3,529.2 768.6,524.31Q841.7,519.43 988.2,518.36L988.2,621.18Q841.88,599.74 768.6,597.86C695.48,595.99 622.17,605.05 549,609.85C475.77,614.65 402.12,615 329.4,626.65Q255.71,638.45 109.8,680.68Z" style="fill: rgb(118, 185, 0); fill-opacity: 0.2; stroke-width: 0;"/></g></g><g class="errorbars"/><g class="lines"><path class="js-line" d="M109.8,680.68Q255.71,638.45 329.4,626.65C402.12,615 475.77,614.65 549,609.85C622.17,605.05 695.48,595.99 768.6,597.86Q841.88,599.74 988.2,621.18" style="vector-effect: none; fill: none; stroke: rgb(1, 100, 224); stroke-opacity: 1; stroke-width: 1px; opacity: 1;"/></g><g class="points"/><g class="text"/></g><g class="trace scatter trace63aef6" style="stroke-miterlimit: 2;"><g class="fills"><g><path class="js-fill" d="M109.8,634.51Q254.89,555.32 329.4,526.69C401.38,499.03 475.49,482.46 549,464.2C621.9,446.09 695.79,436.17 768.6,417.45Q842.2,398.52 988.2,351.05L988.2,518.36Q841.7,519.43 768.6,524.31C695.3,529.2 622.06,537.84 549,547.73C475.66,557.66 401.82,565.41 329.4,583.81Q255.38,602.62 109.8,660.21Z" style="fill: rgb(251, 82, 16); fill-opacity: 0.2; stroke-width: 0;"/></g></g><g class="errorbars"/><g class="lines"><path class="js-line" d="M109.8,660.21Q255.38,602.62 329.4,583.81C401.82,565.41 475.66,557.66 549,547.73C622.06,537.84 695.3,529.2 768.6,524.31Q841.7,519.43 988.2,518.36" style="vector-effect: none; fill: none; stroke: rgb(118, 185, 0); stroke-opacity: 1; stroke-width: 1px; opacity: 1;"/></g><g class="points"/><g class="text"/></g><g class="trace scatter trace135118" style="stroke-miterlimit: 2;"><g class="fills"><g><path class="js-fill" d="M109.8,551.45Q253.65,451.6 329.4,424.35C400.36,398.82 477.17,409.28 549,387.56C623.68,364.98 696.05,324.94 768.6,289.17Q842.48,252.75 988.2,170.65L988.2,351.05Q842.2,398.52 768.6,417.45C695.79,436.17 621.9,446.09 549,464.2C475.49,482.46 401.38,499.03 329.4,526.69Q254.89,555.32 109.8,634.51Z" style="fill: rgb(77, 107, 254); fill-opacity: 0.2; stroke-width: 0;"/></g></g><g class="errorbars"/><g class="lines"><path class="js-line" d="M109.8,634.51Q254.89,555.32 329.4,526.69C401.38,499.03 475.49,482.46 549,464.2C621.9,446.09 695.79,436.17 768.6,417.45Q842.2,398.52 988.2,351.05" style="vector-effect: none; fill: none; stroke: rgb(251, 82, 16); stroke-opacity: 1; stroke-width: 1px; opacity: 1;"/></g><g class="points"/><g class="text"/></g><g class="trace scatter tracef10a75" style="stroke-miterlimit: 2;"><g class="fills"><g><path class="js-fill" d="M109.8,519.32Q250.38,361.97 329.4,324.39C398.19,291.68 477.73,312.58 549,288.55C624.35,263.15 695.31,210.34 768.6,171.84Q841.71,133.44 988.2,57.83L988.2,170.65Q842.48,252.75 768.6,289.17C696.05,324.94 623.68,364.98 549,387.56C477.17,409.28 400.36,398.82 329.4,424.35Q253.65,451.6 109.8,551.45Z" style="fill: rgb(162, 170, 173); fill-opacity: 0.2; stroke-width: 0;"/></g></g><g class="errorbars"/><g class="lines"><path class="js-line" d="M109.8,551.45Q253.65,451.6 329.4,424.35C400.36,398.82 477.17,409.28 549,387.56C623.68,364.98 696.05,324.94 768.6,289.17Q842.48,252.75 988.2,170.65" style="vector-effect: none; fill: none; stroke: rgb(77, 107, 254); stroke-opacity: 1; stroke-width: 1px; opacity: 1;"/></g><g class="points"/><g class="text"/></g><g class="trace scatter trace3e8915" style="stroke-miterlimit: 2;"><g class="fills"/><g class="errorbars"/><g class="lines"><path class="js-line" d="M109.8,519.32Q250.38,361.97 329.4,324.39C398.19,291.68 477.73,312.58 549,288.55C624.35,263.15 695.31,210.34 768.6,171.84Q841.71,133.44 988.2,57.83" style="vector-effect: none; fill: none; stroke: rgb(162, 170, 173); stroke-opacity: 1; stroke-width: 1px; opacity: 1;"/></g><g class="points"/><g class="text"/></g><g class="trace scatter trace59e2da" style="stroke-miterlimit: 2; opacity: 1;"><g class="fills"/><g class="errorbars"/><g class="lines"><path class="js-line" d="M109.8,519.55L329.4,324.39L549,288.46L768.6,171.84L988.2,57.6" style="vector-effect: none; fill: none; stroke: rgb(0, 0, 0); stroke-opacity: 1; stroke-dasharray: 9px, 9px; stroke-width: 2px; opacity: 1;"/></g><g class="points"><path class="point plotly-customdata" transform="translate(109.8,519.55)" d="M6.5,0L0,6.5L-6.5,0L0,-6.5Z" style="opacity: 1; stroke-width: 0px; fill: rgb(0, 0, 0); fill-opacity: 1;"/><path class="point plotly-customdata" transform="translate(329.4,324.39)" d="M6.5,0L0,6.5L-6.5,0L0,-6.5Z" style="opacity: 1; stroke-width: 0px; fill: rgb(0, 0, 0); fill-opacity: 1;"/><path class="point plotly-customdata" transform="translate(549,288.46)" d="M6.5,0L0,6.5L-6.5,0L0,-6.5Z" style="opacity: 1; stroke-width: 0px; fill: rgb(0, 0, 0); fill-opacity: 1;"/><path class="point plotly-customdata" transform="translate(768.6,171.84)" d="M6.5,0L0,6.5L-6.5,0L0,-6.5Z" style="opacity: 1; stroke-width: 0px; fill: rgb(0, 0, 0); fill-opacity: 1;"/><path class="point plotly-customdata" transform="translate(988.2,57.6)" d="M6.5,0L0,6.5L-6.5,0L0,-6.5Z" style="opacity: 1; stroke-width: 0px; fill: rgb(0, 0, 0); fill-opacity: 1;"/></g><g class="text"/></g></g></g></g><path class="xlines-above crisp" d="M100,727.5H1200M100,12.5H1200" style="fill: none; stroke-width: 1px; stroke: rgb(0, 0, 0); stroke-opacity: 1;"/><path class="ylines-above crisp" d="M100.5,13V727M1199.5,13V727" style="fill: none; stroke-width: 1px; stroke: rgb(0, 0, 0); stroke-opacity: 1;"/><g class="overlines-above"/><g class="xaxislayer-above"><g class="xtick"><text text-anchor="middle" x="0" y="756.8" transform="translate(210.8,0)" style="font-family: Courier; font-size: 24px; fill: rgb(0, 0, 0); fill-opacity: 1; white-space: pre; opacity: 1;">2020</text></g><g class="xtick"><text text-anchor="middle" x="0" y="756.8" style="font-family: Courier; font-size: 24px; fill: rgb(0, 0, 0); fill-opacity: 1; white-space: pre; opacity: 1;" transform="translate(430.4,0)">2021</text></g><g class="xtick"><text text-anchor="middle" x="0" y="756.8" style="font-family: Courier; font-size: 24px; fill: rgb(0, 0, 0); fill-opacity: 1; white-space: pre; opacity: 1;" transform="translate(650,0)">2022</text></g><g class="xtick"><text text-anchor="middle" x="0" y="756.8" style="font-family: Courier; font-size: 24px; fill: rgb(0, 0, 0); fill-opacity: 1; white-space: pre; opacity: 1;" transform="translate(869.6,0)">2023</text></g><g class="xtick"><text text-anchor="middle" x="0" y="756.8" style="font-family: Courier; font-size: 24px; fill: rgb(0, 0, 0); fill-opacity: 1; white-space: pre; opacity: 1;" transform="translate(1089.2,0)">2024</text></g></g><g class="yaxislayer-above"><g class="ytick"><text text-anchor="end" x="95.2" y="8.399999999999999" transform="translate(0,727)" style="font-family: Courier; font-size: 24px; fill: rgb(0, 0, 0); fill-opacity: 1; white-space: pre; opacity: 1;">0</text></g><g class="ytick"><text text-anchor="end" x="95.2" y="8.399999999999999" style="font-family: Courier; font-size: 24px; fill: rgb(0, 0, 0); fill-opacity: 1; white-space: pre; opacity: 1;" transform="translate(0,608)">500</text></g><g class="ytick"><text text-anchor="end" x="95.2" y="8.399999999999999" style="font-family: Courier; font-size: 24px; fill: rgb(0, 0, 0); fill-opacity: 1; white-space: pre; opacity: 1;" transform="translate(0,489)">1000</text></g><g class="ytick"><text text-anchor="end" x="95.2" y="8.399999999999999" style="font-family: Courier; font-size: 24px; fill: rgb(0, 0, 0); fill-opacity: 1; white-space: pre; opacity: 1;" transform="translate(0,370)">1500</text></g><g class="ytick"><text text-anchor="end" x="95.2" y="8.399999999999999" style="font-family: Courier; font-size: 24px; fill: rgb(0, 0, 0); fill-opacity: 1; white-space: pre; opacity: 1;" transform="translate(0,251)">2000</text></g><g class="ytick"><text text-anchor="end" x="95.2" y="8.399999999999999" style="font-family: Courier; font-size: 24px; fill: rgb(0, 0, 0); fill-opacity: 1; white-space: pre; opacity: 1;" transform="translate(0,132)">2500</text></g><g class="ytick"><text text-anchor="end" x="95.2" y="8.399999999999999" style="font-family: Courier; font-size: 24px; fill: rgb(0, 0, 0); fill-opacity: 1; white-space: pre; opacity: 0;" transform="translate(0,13)">3000</text></g></g><g class="overaxes-above"/></g></g><g class="polarlayer"/><g class="smithlayer"/><g class="ternarylayer"/><g class="geolayer"/><g class="funnelarealayer"/><g class="pielayer"/><g class="iciclelayer"/><g class="treemaplayer"/><g class="sunburstlayer"/><g class="glimages"/><defs id="topdefs-9a48e2"><g class="clips"/><clipPath id="legend9a48e2"><rect width="217" height="263" x="1" y="1"/></clipPath></defs><g class="layer-above"><g class="imagelayer"/><g class="shapelayer"/></g><g class="infolayer"><g class="legend" pointer-events="all" transform="translate(111.98,20.140000000000008)"><rect class="bg" shape-rendering="crispEdges" width="218" height="264" x="0.5" y="0.5" style="stroke: rgb(0, 0, 0); stroke-opacity: 1; fill: rgb(255, 255, 255); fill-opacity: 0.8; stroke-width: 1px;"/><g class="scrollbox" transform="" clip-path="url(#legend9a48e2)"><g class="groups"><g class="traces" transform="translate(1,21.8)" style="opacity: 1;"><text class="legendtext" text-anchor="start" x="40" y="8.58" style="font-family: Courier; font-size: 22px; fill: rgb(0, 0, 0); fill-opacity: 1; white-space: pre;">Compute Power</text><g class="layers" style="opacity: 1;"><g class="legendfill"/><g class="legendlines"><path class="js-line" d="M5,0h30" style="fill: none; stroke: rgb(0, 0, 0); stroke-opacity: 1; stroke-dasharray: 9px, 9px; stroke-width: 2px;"/></g><g class="legendsymbols"><g class="legendpoints"><path class="scatterpts" transform="translate(20,0)" d="M6.5,0L0,6.5L-6.5,0L0,-6.5Z" style="opacity: 1; stroke-width: 0px; fill: rgb(0, 0, 0); fill-opacity: 1;"/></g></g></g><rect class="legendtoggle" x="0" y="-15.8" width="211.640625" height="31.6" style="fill: rgb(0, 0, 0); fill-opacity: 0;"/></g><g class="traces" transform="translate(1,53.400000000000006)" style="opacity: 1;"><text class="legendtext" text-anchor="start" x="40" y="8.58" style="font-family: Courier; font-size: 22px; fill: rgb(0, 0, 0); fill-opacity: 1; white-space: pre;">Apple</text><g class="layers" style="opacity: 1;"><g class="legendfill"/><g class="legendlines"/><g class="legendsymbols"><g class="legendpoints"><path class="legendundefined" d="M6,6H-6V-6H6Z" transform="translate(20,0)" style="stroke-width: 2px; fill: rgb(162, 170, 173); fill-opacity: 0.2; stroke: rgb(162, 170, 173); stroke-opacity: 1;"/></g></g></g><rect class="legendtoggle" x="0" y="-15.8" width="211.640625" height="31.6" style="fill: rgb(0, 0, 0); fill-opacity: 0;"/></g><g class="traces" transform="translate(1,85)" style="opacity: 1;"><text class="legendtext" text-anchor="start" x="40" y="8.58" style="font-family: Courier; font-size: 22px; fill: rgb(0, 0, 0); fill-opacity: 1; white-space: pre;">Samsung</text><g class="layers" style="opacity: 1;"><g class="legendfill"/><g class="legendlines"/><g class="legendsymbols"><g class="legendpoints"><path class="legendundefined" d="M6,6H-6V-6H6Z" transform="translate(20,0)" style="stroke-width: 2px; fill: rgb(77, 107, 254); fill-opacity: 0.2; stroke: rgb(77, 107, 254); stroke-opacity: 1;"/></g></g></g><rect class="legendtoggle" x="0" y="-15.8" width="211.640625" height="31.6" style="fill: rgb(0, 0, 0); fill-opacity: 0;"/></g><g class="traces" transform="translate(1,116.60000000000001)" style="opacity: 1;"><text class="legendtext" text-anchor="start" x="40" y="8.58" style="font-family: Courier; font-size: 22px; fill: rgb(0, 0, 0); fill-opacity: 1; white-space: pre;">Xiaomi</text><g class="layers" style="opacity: 1;"><g class="legendfill"/><g class="legendlines"/><g class="legendsymbols"><g class="legendpoints"><path class="legendundefined" d="M6,6H-6V-6H6Z" transform="translate(20,0)" style="stroke-width: 2px; fill: rgb(251, 82, 16); fill-opacity: 0.2; stroke: rgb(251, 82, 16); stroke-opacity: 1;"/></g></g></g><rect class="legendtoggle" x="0" y="-15.8" width="211.640625" height="31.6" style="fill: rgb(0, 0, 0); fill-opacity: 0;"/></g><g class="traces" transform="translate(1,148.20000000000002)" style="opacity: 1;"><text class="legendtext" text-anchor="start" x="40" y="8.58" style="font-family: Courier; font-size: 22px; fill: rgb(0, 0, 0); fill-opacity: 1; white-space: pre;">OPPO</text><g class="layers" style="opacity: 1;"><g class="legendfill"/><g class="legendlines"/><g class="legendsymbols"><g class="legendpoints"><path class="legendundefined" d="M6,6H-6V-6H6Z" transform="translate(20,0)" style="stroke-width: 2px; fill: rgb(118, 185, 0); fill-opacity: 0.2; stroke: rgb(118, 185, 0); stroke-opacity: 1;"/></g></g></g><rect class="legendtoggle" x="0" y="-15.8" width="211.640625" height="31.6" style="fill: rgb(0, 0, 0); fill-opacity: 0;"/></g><g class="traces" transform="translate(1,179.8)" style="opacity: 1;"><text class="legendtext" text-anchor="start" x="40" y="8.58" style="font-family: Courier; font-size: 22px; fill: rgb(0, 0, 0); fill-opacity: 1; white-space: pre;">vivo</text><g class="layers" style="opacity: 1;"><g class="legendfill"/><g class="legendlines"/><g class="legendsymbols"><g class="legendpoints"><path class="legendundefined" d="M6,6H-6V-6H6Z" transform="translate(20,0)" style="stroke-width: 2px; fill: rgb(1, 100, 224); fill-opacity: 0.2; stroke: rgb(1, 100, 224); stroke-opacity: 1;"/></g></g></g><rect class="legendtoggle" x="0" y="-15.8" width="211.640625" height="31.6" style="fill: rgb(0, 0, 0); fill-opacity: 0;"/></g><g class="traces" transform="translate(1,211.4)" style="opacity: 1;"><text class="legendtext" text-anchor="start" x="40" y="8.58" style="font-family: Courier; font-size: 22px; fill: rgb(0, 0, 0); fill-opacity: 1; white-space: pre;">Transsion</text><g class="layers" style="opacity: 1;"><g class="legendfill"/><g class="legendlines"/><g class="legendsymbols"><g class="legendpoints"><path class="legendundefined" d="M6,6H-6V-6H6Z" transform="translate(20,0)" style="stroke-width: 2px; fill: rgb(153, 50, 204); fill-opacity: 0.2; stroke: rgb(153, 50, 204); stroke-opacity: 1;"/></g></g></g><rect class="legendtoggle" x="0" y="-15.8" width="211.640625" height="31.6" style="fill: rgb(0, 0, 0); fill-opacity: 0;"/></g><g class="traces" transform="translate(1,243)" style="opacity: 1;"><text class="legendtext" text-anchor="start" x="40" y="8.58" style="font-family: Courier; font-size: 22px; fill: rgb(0, 0, 0); fill-opacity: 1; white-space: pre;">Others</text><g class="layers" style="opacity: 1;"><g class="legendfill"/><g class="legendlines"/><g class="legendsymbols"><g class="legendpoints"><path class="legendundefined" d="M6,6H-6V-6H6Z" transform="translate(20,0)" style="stroke-width: 2px; fill: rgb(32, 178, 170); fill-opacity: 0.2; stroke: rgb(32, 178, 170); stroke-opacity: 1;"/></g></g></g><rect class="legendtoggle" x="0" y="-15.8" width="211.640625" height="31.6" style="fill: rgb(0, 0, 0); fill-opacity: 0;"/></g></g></g><rect class="scrollbar" rx="20" ry="3" width="0" height="0" x="0" y="0" style="fill: rgb(128, 139, 164); fill-opacity: 1;"/></g><g class="g-gtitle"/><g class="g-xtitle" transform="translate(0,-7.712499999999977)"><text class="xtitle" x="650" y="799.7125" text-anchor="middle" style="opacity: 1; font-family: Courier; font-size: 32px; fill: rgb(0, 0, 0); fill-opacity: 1; white-space: pre;"><tspan style="font-weight:bold">Year</tspan></text></g><g class="g-ytitle" transform="translate(17.1220703125,0)"><text class="ytitle" transform="rotate(-90,11.878124999999997,370)" x="11.878124999999997" y="370" text-anchor="middle" style="opacity: 1; font-family: Courier; font-size: 32px; fill: rgb(0, 0, 0); fill-opacity: 1; white-space: pre;"><tspan style="font-weight:bold">Compute Power (EFLOPS)</tspan></text></g><g class="annotation" data-index="0" style="opacity: 1;"><g class="annotation-text-g" transform="rotate(0,210.8,516.55)"><g class="cursor-pointer" transform="translate(187,501)"><rect class="bg" x="0.5" y="0.5" width="46" height="31" style="stroke-width: 1px; stroke: rgb(0, 0, 0); stroke-opacity: 0; fill: rgb(0, 0, 0); fill-opacity: 0;"/><text class="annotation-text" text-anchor="middle" x="23.609375" y="23.5" style="font-family: Courier; font-size: 24px; fill: rgb(0, 0, 0); fill-opacity: 1; white-space: pre;"><tspan style="font-weight:bold">817</tspan></text></g></g></g><g class="annotation" data-index="1" style="opacity: 1;"><g class="annotation-text-g" transform="rotate(0,430.4,321.39)"><g class="cursor-pointer" transform="translate(399,305)"><rect class="bg" x="0.5" y="0.5" width="61" height="31" style="stroke-width: 1px; stroke: rgb(0, 0, 0); stroke-opacity: 0; fill: rgb(0, 0, 0); fill-opacity: 0;"/><text class="annotation-text" text-anchor="middle" x="30.8125" y="23.5" style="font-family: Courier; font-size: 24px; fill: rgb(0, 0, 0); fill-opacity: 1; white-space: pre;"><tspan style="font-weight:bold">1637</tspan></text></g></g></g><g class="annotation" data-index="2" style="opacity: 1;"><g class="annotation-text-g" transform="rotate(0,650,285.46)"><g class="cursor-pointer" transform="translate(619,269)"><rect class="bg" x="0.5" y="0.5" width="61" height="31" style="stroke-width: 1px; stroke: rgb(0, 0, 0); stroke-opacity: 0; fill: rgb(0, 0, 0); fill-opacity: 0;"/><text class="annotation-text" text-anchor="middle" x="30.8125" y="23.5" style="font-family: Courier; font-size: 24px; fill: rgb(0, 0, 0); fill-opacity: 1; white-space: pre;"><tspan style="font-weight:bold">1788</tspan></text></g></g></g><g class="annotation" data-index="3" style="opacity: 1;"><g class="annotation-text-g" transform="rotate(0,869.6,168.84)"><g class="cursor-pointer" transform="translate(839,153)"><rect class="bg" x="0.5" y="0.5" width="61" height="31" style="stroke-width: 1px; stroke: rgb(0, 0, 0); stroke-opacity: 0; fill: rgb(0, 0, 0); fill-opacity: 0;"/><text class="annotation-text" text-anchor="middle" x="30.8125" y="23.5" style="font-family: Courier; font-size: 24px; fill: rgb(0, 0, 0); fill-opacity: 1; white-space: pre;"><tspan style="font-weight:bold">2278</tspan></text></g></g></g><g class="annotation" data-index="4" style="opacity: 1;"><g class="annotation-text-g" transform="rotate(0,1089.2,54.599999999999994)"><g class="cursor-pointer" transform="translate(1058,39)"><rect class="bg" x="0.5" y="0.5" width="61" height="31" style="stroke-width: 1px; stroke: rgb(0, 0, 0); stroke-opacity: 0; fill: rgb(0, 0, 0); fill-opacity: 0;"/><text class="annotation-text" text-anchor="middle" x="30.8125" y="23.5" style="font-family: Courier; font-size: 24px; fill: rgb(0, 0, 0); fill-opacity: 1; white-space: pre;"><tspan style="font-weight:bold">2758</tspan></text></g></g></g><g class="annotation" data-index="5" style="opacity: 1;"><g class="annotation-text-g" transform="rotate(0,210.8,719.98)"><g class="cursor-pointer" transform="translate(186,706)"><rect class="bg" x="0.5" y="0.5" width="48" height="26" style="stroke-width: 1px; stroke: rgb(0, 0, 0); stroke-opacity: 0; fill: rgb(0, 0, 0); fill-opacity: 0.4;"/><text class="annotation-text" text-anchor="middle" x="24.609375" y="19" style="font-family: Courier; font-size: 18px; fill: rgb(255, 255, 255); fill-opacity: 1; white-space: pre;">7.2%</text></g></g></g><g class="annotation" data-index="6" style="opacity: 1;"><g class="annotation-text-g" transform="rotate(0,210.8,703.32)"><g class="cursor-pointer" transform="translate(186,690)"><rect class="bg" x="0.5" y="0.5" width="48" height="26" style="stroke-width: 1px; stroke: rgb(0, 0, 0); stroke-opacity: 0; fill: rgb(0, 0, 0); fill-opacity: 0.4;"/><text class="annotation-text" text-anchor="middle" x="24.609375" y="19" style="font-family: Courier; font-size: 18px; fill: rgb(255, 255, 255); fill-opacity: 1; white-space: pre;">9.9%</text></g></g></g><g class="annotation" data-index="7" style="opacity: 1;"><g class="annotation-text-g" transform="rotate(0,210.8,683.45)"><g class="cursor-pointer" transform="translate(181,670)"><rect class="bg" x="0.5" y="0.5" width="59" height="26" style="stroke-width: 1px; stroke: rgb(0, 0, 0); stroke-opacity: 0; fill: rgb(0, 0, 0); fill-opacity: 0.4;"/><text class="annotation-text" text-anchor="middle" x="30.015625" y="19" style="font-family: Courier; font-size: 18px; fill: rgb(255, 255, 255); fill-opacity: 1; white-space: pre;">10.5%</text></g></g></g><g class="annotation" data-index="8" style="opacity: 1;"><g class="annotation-text-g" transform="rotate(0,210.8,660.36)"><g class="cursor-pointer" transform="translate(181,647)"><rect class="bg" x="0.5" y="0.5" width="59" height="26" style="stroke-width: 1px; stroke: rgb(0, 0, 0); stroke-opacity: 0; fill: rgb(0, 0, 0); fill-opacity: 0.4;"/><text class="annotation-text" text-anchor="middle" x="30.015625" y="19" style="font-family: Courier; font-size: 18px; fill: rgb(255, 255, 255); fill-opacity: 1; white-space: pre;">13.2%</text></g></g></g><g class="annotation" data-index="9" style="opacity: 1;"><g class="annotation-text-g" transform="rotate(0,210.8,605.98)"><g class="cursor-pointer" transform="translate(181,592)"><rect class="bg" x="0.5" y="0.5" width="59" height="26" style="stroke-width: 1px; stroke: rgb(0, 0, 0); stroke-opacity: 0; fill: rgb(0, 0, 0); fill-opacity: 0.4;"/><text class="annotation-text" text-anchor="middle" x="30.015625" y="19" style="font-family: Courier; font-size: 18px; fill: rgb(255, 255, 255); fill-opacity: 1; white-space: pre;">42.7%</text></g></g></g><g class="annotation" data-index="10" style="opacity: 1;"><g class="annotation-text-g" transform="rotate(0,210.8,548.38)"><g class="cursor-pointer" transform="translate(181,535)"><rect class="bg" x="0.5" y="0.5" width="59" height="26" style="stroke-width: 1px; stroke: rgb(0, 0, 0); stroke-opacity: 0; fill: rgb(0, 0, 0); fill-opacity: 0.4;"/><text class="annotation-text" text-anchor="middle" x="30.015625" y="19" style="font-family: Courier; font-size: 18px; fill: rgb(255, 255, 255); fill-opacity: 1; white-space: pre;">16.5%</text></g></g></g><g class="annotation" data-index="11" style="opacity: 1;"><g class="annotation-text-g" transform="rotate(0,430.4,702.37)"><g class="cursor-pointer" transform="translate(400,689)"><rect class="bg" x="0.5" y="0.5" width="59" height="26" style="stroke-width: 1px; stroke: rgb(0, 0, 0); stroke-opacity: 0; fill: rgb(0, 0, 0); fill-opacity: 0.4;"/><text class="annotation-text" text-anchor="middle" x="30.015625" y="19" style="font-family: Courier; font-size: 18px; fill: rgb(255, 255, 255); fill-opacity: 1; white-space: pre;">12.6%</text></g></g></g><g class="annotation" data-index="12" style="opacity: 1;"><g class="annotation-text-g" transform="rotate(0,430.4,658.69)"><g class="cursor-pointer" transform="translate(406,645)"><rect class="bg" x="0.5" y="0.5" width="48" height="26" style="stroke-width: 1px; stroke: rgb(0, 0, 0); stroke-opacity: 0; fill: rgb(0, 0, 0); fill-opacity: 0.4;"/><text class="annotation-text" text-anchor="middle" x="24.609375" y="19" style="font-family: Courier; font-size: 18px; fill: rgb(255, 255, 255); fill-opacity: 1; white-space: pre;">9.8%</text></g></g></g><g class="annotation" data-index="13" style="opacity: 1;"><g class="annotation-text-g" transform="rotate(0,430.4,618.23)"><g class="cursor-pointer" transform="translate(400,605)"><rect class="bg" x="0.5" y="0.5" width="59" height="26" style="stroke-width: 1px; stroke: rgb(0, 0, 0); stroke-opacity: 0; fill: rgb(0, 0, 0); fill-opacity: 0.4;"/><text class="annotation-text" text-anchor="middle" x="30.015625" y="19" style="font-family: Courier; font-size: 18px; fill: rgb(255, 255, 255); fill-opacity: 1; white-space: pre;">11.0%</text></g></g></g><g class="annotation" data-index="14" style="opacity: 1;"><g class="annotation-text-g" transform="rotate(0,430.4,568.25)"><g class="cursor-pointer" transform="translate(400,555)"><rect class="bg" x="0.5" y="0.5" width="59" height="26" style="stroke-width: 1px; stroke: rgb(0, 0, 0); stroke-opacity: 0; fill: rgb(0, 0, 0); fill-opacity: 0.4;"/><text class="annotation-text" text-anchor="middle" x="30.015625" y="19" style="font-family: Courier; font-size: 18px; fill: rgb(255, 255, 255); fill-opacity: 1; white-space: pre;">14.7%</text></g></g></g><g class="annotation" data-index="15" style="opacity: 1;"><g class="annotation-text-g" transform="rotate(0,430.4,488.52)"><g class="cursor-pointer" transform="translate(400,475)"><rect class="bg" x="0.5" y="0.5" width="59" height="26" style="stroke-width: 1px; stroke: rgb(0, 0, 0); stroke-opacity: 0; fill: rgb(0, 0, 0); fill-opacity: 0.4;"/><text class="annotation-text" text-anchor="middle" x="30.015625" y="19" style="font-family: Courier; font-size: 18px; fill: rgb(255, 255, 255); fill-opacity: 1; white-space: pre;">26.3%</text></g></g></g><g class="annotation" data-index="16" style="opacity: 1;"><g class="annotation-text-g" transform="rotate(0,430.4,387.37)"><g class="cursor-pointer" transform="translate(400,374)"><rect class="bg" x="0.5" y="0.5" width="59" height="26" style="stroke-width: 1px; stroke: rgb(0, 0, 0); stroke-opacity: 0; fill: rgb(0, 0, 0); fill-opacity: 0.4;"/><text class="annotation-text" text-anchor="middle" x="30.015625" y="19" style="font-family: Courier; font-size: 18px; fill: rgb(255, 255, 255); fill-opacity: 1; white-space: pre;">25.7%</text></g></g></g><g class="annotation" data-index="17" style="opacity: 1;"><g class="annotation-text-g" transform="rotate(0,650,680.23)"><g class="cursor-pointer" transform="translate(620,667)"><rect class="bg" x="0.5" y="0.5" width="59" height="26" style="stroke-width: 1px; stroke: rgb(0, 0, 0); stroke-opacity: 0; fill: rgb(0, 0, 0); fill-opacity: 0.4;"/><text class="annotation-text" text-anchor="middle" x="30.015625" y="19" style="font-family: Courier; font-size: 18px; fill: rgb(255, 255, 255); fill-opacity: 1; white-space: pre;">22.0%</text></g></g></g><g class="annotation" data-index="18" style="opacity: 1;"><g class="annotation-text-g" transform="rotate(0,650,591.79)"><g class="cursor-pointer" transform="translate(620,578)"><rect class="bg" x="0.5" y="0.5" width="59" height="26" style="stroke-width: 1px; stroke: rgb(0, 0, 0); stroke-opacity: 0; fill: rgb(0, 0, 0); fill-opacity: 0.4;"/><text class="annotation-text" text-anchor="middle" x="30.015625" y="19" style="font-family: Courier; font-size: 18px; fill: rgb(255, 255, 255); fill-opacity: 1; white-space: pre;">14.6%</text></g></g></g><g class="annotation" data-index="19" style="opacity: 1;"><g class="annotation-text-g" transform="rotate(0,650,518.96)"><g class="cursor-pointer" transform="translate(620,505)"><rect class="bg" x="0.5" y="0.5" width="59" height="26" style="stroke-width: 1px; stroke: rgb(0, 0, 0); stroke-opacity: 0; fill: rgb(0, 0, 0); fill-opacity: 0.4;"/><text class="annotation-text" text-anchor="middle" x="30.015625" y="19" style="font-family: Courier; font-size: 18px; fill: rgb(255, 255, 255); fill-opacity: 1; white-space: pre;">19.6%</text></g></g></g><g class="annotation" data-index="20" style="opacity: 1;"><g class="annotation-text-g" transform="rotate(0,650,438.88)"><g class="cursor-pointer" transform="translate(620,425)"><rect class="bg" x="0.5" y="0.5" width="59" height="26" style="stroke-width: 1px; stroke: rgb(0, 0, 0); stroke-opacity: 0; fill: rgb(0, 0, 0); fill-opacity: 0.4;"/><text class="annotation-text" text-anchor="middle" x="30.015625" y="19" style="font-family: Courier; font-size: 18px; fill: rgb(255, 255, 255); fill-opacity: 1; white-space: pre;">18.0%</text></g></g></g><g class="annotation" data-index="21" style="opacity: 1;"><g class="annotation-text-g" transform="rotate(0,650,351.06)"><g class="cursor-pointer" transform="translate(620,338)"><rect class="bg" x="0.5" y="0.5" width="59" height="26" style="stroke-width: 1px; stroke: rgb(0, 0, 0); stroke-opacity: 0; fill: rgb(0, 0, 0); fill-opacity: 0.4;"/><text class="annotation-text" text-anchor="middle" x="30.015625" y="19" style="font-family: Courier; font-size: 18px; fill: rgb(255, 255, 255); fill-opacity: 1; white-space: pre;">23.3%</text></g></g></g><g class="annotation" data-index="22" style="opacity: 1;"><g class="annotation-text-g" transform="rotate(0,869.6,677.5)"><g class="cursor-pointer" transform="translate(840,664)"><rect class="bg" x="0.5" y="0.5" width="59" height="26" style="stroke-width: 1px; stroke: rgb(0, 0, 0); stroke-opacity: 0; fill: rgb(0, 0, 0); fill-opacity: 0.4;"/><text class="annotation-text" text-anchor="middle" x="30.015625" y="19" style="font-family: Courier; font-size: 18px; fill: rgb(255, 255, 255); fill-opacity: 1; white-space: pre;">18.3%</text></g></g></g><g class="annotation" data-index="23" style="opacity: 1;"><g class="annotation-text-g" transform="rotate(0,869.6,574.09)"><g class="cursor-pointer" transform="translate(840,561)"><rect class="bg" x="0.5" y="0.5" width="59" height="26" style="stroke-width: 1px; stroke: rgb(0, 0, 0); stroke-opacity: 0; fill: rgb(0, 0, 0); fill-opacity: 0.4;"/><text class="annotation-text" text-anchor="middle" x="30.015625" y="19" style="font-family: Courier; font-size: 18px; fill: rgb(255, 255, 255); fill-opacity: 1; white-space: pre;">13.6%</text></g></g></g><g class="annotation" data-index="24" style="opacity: 1;"><g class="annotation-text-g" transform="rotate(0,869.6,483.88)"><g class="cursor-pointer" transform="translate(840,470)"><rect class="bg" x="0.5" y="0.5" width="59" height="26" style="stroke-width: 1px; stroke: rgb(0, 0, 0); stroke-opacity: 0; fill: rgb(0, 0, 0); fill-opacity: 0.4;"/><text class="annotation-text" text-anchor="middle" x="30.015625" y="19" style="font-family: Courier; font-size: 18px; fill: rgb(255, 255, 255); fill-opacity: 1; white-space: pre;">19.7%</text></g></g></g><g class="annotation" data-index="25" style="opacity: 1;"><g class="annotation-text-g" transform="rotate(0,869.6,366.31)"><g class="cursor-pointer" transform="translate(840,353)"><rect class="bg" x="0.5" y="0.5" width="59" height="26" style="stroke-width: 1px; stroke: rgb(0, 0, 0); stroke-opacity: 0; fill: rgb(0, 0, 0); fill-opacity: 0.4;"/><text class="annotation-text" text-anchor="middle" x="30.015625" y="19" style="font-family: Courier; font-size: 18px; fill: rgb(255, 255, 255); fill-opacity: 1; white-space: pre;">23.7%</text></g></g></g><g class="annotation" data-index="26" style="opacity: 1;"><g class="annotation-text-g" transform="rotate(0,869.6,243.5)"><g class="cursor-pointer" transform="translate(840,230)"><rect class="bg" x="0.5" y="0.5" width="59" height="26" style="stroke-width: 1px; stroke: rgb(0, 0, 0); stroke-opacity: 0; fill: rgb(0, 0, 0); fill-opacity: 0.4;"/><text class="annotation-text" text-anchor="middle" x="30.015625" y="19" style="font-family: Courier; font-size: 18px; fill: rgb(255, 255, 255); fill-opacity: 1; white-space: pre;">21.6%</text></g></g></g><g class="annotation" data-index="27" style="opacity: 1;"><g class="annotation-text-g" transform="rotate(0,1089.2,685.11)"><g class="cursor-pointer" transform="translate(1059,672)"><rect class="bg" x="0.5" y="0.5" width="59" height="26" style="stroke-width: 1px; stroke: rgb(0, 0, 0); stroke-opacity: 0; fill: rgb(0, 0, 0); fill-opacity: 0.4;"/><text class="annotation-text" text-anchor="middle" x="30.015625" y="19" style="font-family: Courier; font-size: 18px; fill: rgb(255, 255, 255); fill-opacity: 1; white-space: pre;">12.8%</text></g></g></g><g class="annotation" data-index="28" style="opacity: 1;"><g class="annotation-text-g" transform="rotate(0,1089.2,582.77)"><g class="cursor-pointer" transform="translate(1059,569)"><rect class="bg" x="0.5" y="0.5" width="59" height="26" style="stroke-width: 1px; stroke: rgb(0, 0, 0); stroke-opacity: 0; fill: rgb(0, 0, 0); fill-opacity: 0.4;"/><text class="annotation-text" text-anchor="middle" x="30.015625" y="19" style="font-family: Courier; font-size: 18px; fill: rgb(255, 255, 255); fill-opacity: 1; white-space: pre;">15.7%</text></g></g></g><g class="annotation" data-index="29" style="opacity: 1;"><g class="annotation-text-g" transform="rotate(0,1089.2,447.71)"><g class="cursor-pointer" transform="translate(1059,434)"><rect class="bg" x="0.5" y="0.5" width="59" height="26" style="stroke-width: 1px; stroke: rgb(0, 0, 0); stroke-opacity: 0; fill: rgb(0, 0, 0); fill-opacity: 0.4;"/><text class="annotation-text" text-anchor="middle" x="30.015625" y="19" style="font-family: Courier; font-size: 18px; fill: rgb(255, 255, 255); fill-opacity: 1; white-space: pre;">25.5%</text></g></g></g><g class="annotation" data-index="30" style="opacity: 1;"><g class="annotation-text-g" transform="rotate(0,1089.2,273.85)"><g class="cursor-pointer" transform="translate(1059,260)"><rect class="bg" x="0.5" y="0.5" width="59" height="26" style="stroke-width: 1px; stroke: rgb(0, 0, 0); stroke-opacity: 0; fill: rgb(0, 0, 0); fill-opacity: 0.4;"/><text class="annotation-text" text-anchor="middle" x="30.015625" y="19" style="font-family: Courier; font-size: 18px; fill: rgb(255, 255, 255); fill-opacity: 1; white-space: pre;">27.5%</text></g></g></g><g class="annotation" data-index="31" style="opacity: 1;"><g class="annotation-text-g" transform="rotate(0,1089.2,127.24)"><g class="cursor-pointer" transform="translate(1059,114)"><rect class="bg" x="0.5" y="0.5" width="59" height="26" style="stroke-width: 1px; stroke: rgb(0, 0, 0); stroke-opacity: 0; fill: rgb(0, 0, 0); fill-opacity: 0.4;"/><text class="annotation-text" text-anchor="middle" x="30.015625" y="19" style="font-family: Courier; font-size: 18px; fill: rgb(255, 255, 255); fill-opacity: 1; white-space: pre;">17.2%</text></g></g></g><g class="annotation" data-index="32" style="opacity: 1;"><g class="annotation-text-g" transform="rotate(0,650,108.2)"><g class="cursor-pointer" transform="translate(409,68)"><rect class="bg" x="1" y="1" width="481" height="78" style="stroke-width: 2px; stroke: rgb(0, 0, 0); stroke-opacity: 1; fill: rgb(255, 255, 255); fill-opacity: 1;"/><text class="annotation-text" text-anchor="middle" x="241.25" y="31" style="font-family: Courier; font-size: 28px; fill: rgb(0, 0, 0); fill-opacity: 1; white-space: pre;"><tspan class="line" dy="0em" x="241.25" y="31">Cumulative Compute Power</tspan><tspan class="line" dy="1.3em" x="241.25" y="31">of Past 5 Years: 9278 EFLOPS</tspan></text></g></g></g></g></svg>